<svg xmlns="http://www.w3.org/2000/svg" width="264" height="70" viewBox="0 0 6985 1852.083" preserveAspectRatio="xMidYMid" fill-rule="evenodd" stroke-width="28.222" stroke-linejoin="round"><defs><clipPath id="A"><path d="M0 0h9313v2469H0z"/></clipPath></defs><g clip-path="url(#A)" transform="matrix(.754848 0 0 .754848 -22.826584 -5.440619)"><g fill="#303a48"><path d="M2799 1634h-149V906l-101-51v-41h250zm-1494 0h-166L818 906l-101-51v-41h220z"/><path d="M1145 1634h166l365-820h-163zm930-109c-165 0-299-134-299-300 0-165 134-299 299-299 166 0 300 134 300 299 0 166-134 300-300 300zm0-736c-241 0-436 196-436 436 0 241 195 437 436 437s436-196 436-437c0-240-195-436-436-436zm1222 590h-188V932h188c125 0 226 102 226 228 0 125-101 219-226 219zm355-219c0-191-155-346-346-346h0-341v821h107l32-138h210c187-5 338-150 338-337zm3936 474h-149V906l-101-51v-41h250zm572-109c-165 0-299-134-299-300 0-165 134-299 299-299s299 134 299 299c0 166-134 300-299 300zm0-736c-241 0-436 196-436 436 0 241 195 437 436 437s436-196 436-437c0-240-195-436-436-436zm-1266 727h-179V932h179c126 0 268 91 268 301 0 190-142 283-268 283zm404-283c0-293-170-419-394-419h-333v820h341c215 0 386-146 386-401zM5259 814h-249v82l202 33v705h149V929h161V814z"/></g><path d="M4298 1812h-95L3671 656h91z" fill="#4dc6f4"/><path d="M6283 814v477c-1 144-103 236-226 236-124 0-222-91-222-236V814h-248v41l101 51v385c0 235 166 372 371 372 204 0 371-142 371-372l1-477z" fill="#303a48"/><path d="M5003 1368c-49-290-503-179-493-347 6-98 108-104 161-99 61 5 127 43 135 101h134c-1-86-79-203-272-220h-1c-115-10-288 42-291 218l-1 8c5 137 98 196 278 235 99 20 220 62 209 147-7 48-43 84-74 99-41 19-76 27-127 24-99-5-145-54-158-117l-145-1c10 143 126 240 290 245h1c171 15 340-68 355-229 1-16 1-44-1-64z" fill="#2c3f51"/></g></svg>