<?xml version="1.0" standalone="no"?>
<!DOCTYPE svg PUBLIC "-//W3C//DTD SVG 20010904//EN"
 "http://www.w3.org/TR/2001/REC-SVG-20010904/DTD/svg10.dtd">
<svg version="1.0" xmlns="http://www.w3.org/2000/svg"
 width="378.000000pt" height="133.000000pt" viewBox="0 0 378.000000 133.000000"
 preserveAspectRatio="xMidYMid meet">

<g transform="translate(0.000000,133.000000) scale(0.100000,-0.100000)"
fill="#000000" stroke="none">
<path d="M1710 1254 c-90 -36 -170 -70 -177 -76 -14 -11 -7 -32 7 -23 9 6 70
-21 70 -31 0 -2 -13 2 -30 11 -16 9 -30 13 -30 11 0 -9 57 -36 63 -30 9 9 88
-36 82 -46 -3 -5 0 -8 7 -5 14 5 181 -88 178 -99 -1 -4 2 -11 6 -14 4 -4 4 -2
1 5 -5 7 35 34 108 74 l115 64 -97 37 c-54 21 -103 36 -110 33 -18 -6 -43 5
-43 20 0 23 32 27 54 7 12 -11 63 -36 114 -56 l93 -36 61 35 c33 20 63 34 65
31 3 -2 -13 -14 -36 -26 -23 -11 -41 -23 -41 -25 0 -8 78 33 84 44 3 5 0 13
-7 18 -15 12 -349 143 -362 143 -6 -1 -84 -30 -175 -66z"/>
<path d="M2134 1094 c-18 -14 -18 -15 4 -4 12 6 22 13 22 15 0 8 -5 6 -26 -11z"/>
<path d="M1640 1096 c0 -3 9 -10 20 -16 11 -6 20 -8 20 -6 0 3 -9 10 -20 16
-11 6 -20 8 -20 6z"/>
<path d="M2085 1070 c-3 -6 1 -7 9 -4 18 7 21 14 7 14 -6 0 -13 -4 -16 -10z"/>
<path d="M1710 1056 c0 -3 9 -10 20 -16 11 -6 20 -8 20 -6 0 3 -9 10 -20 16
-11 6 -20 8 -20 6z"/>
<path d="M2027 1039 c-20 -11 -37 -22 -37 -24 0 -3 19 4 43 16 73 37 26 4 -63
-44 -66 -36 -89 -44 -103 -36 -9 6 -14 15 -11 21 4 7 2 8 -4 4 -11 -6 -72 19
-72 30 0 2 14 -2 30 -11 17 -9 30 -13 30 -11 0 11 -55 33 -69 28 -9 -3 -11 0
-6 8 5 9 4 11 -3 6 -6 -4 -25 0 -41 9 l-30 15 0 -54 c1 -49 5 -57 38 -89 20
-19 63 -51 95 -71 l60 -35 49 27 c59 32 157 118 157 138 0 22 -11 17 -50 -20
-19 -19 -62 -51 -94 -70 l-59 -36 -56 32 c-68 38 -131 88 -131 102 0 5 15 -4
33 -21 17 -18 60 -47 94 -67 l62 -34 63 40 c82 52 138 107 138 134 0 31 -20
35 -63 13z"/>
<path d="M2110 1030 c0 -5 5 -10 10 -10 6 0 10 5 10 10 0 6 -4 10 -10 10 -5 0
-10 -4 -10 -10z"/>
<path d="M1938 989 c-21 -11 -38 -22 -38 -24 0 -3 18 4 40 15 22 11 40 23 40
25 0 7 0 7 -42 -16z"/>
<path d="M2110 996 c0 -9 5 -16 10 -16 6 0 10 4 10 9 0 6 -4 13 -10 16 -5 3
-10 -1 -10 -9z"/>
<path d="M2099 953 c-4 -26 -3 -261 1 -257 5 6 9 264 3 264 -2 0 -4 -3 -4 -7z"/>
<path d="M2124 933 c1 -36 11 -51 19 -30 3 7 -1 24 -8 37 -13 24 -13 24 -11
-7z"/>
<path d="M2126 792 c2 -102 2 -101 13 -83 6 9 6 22 0 32 -12 23 -11 32 2 23 8
-5 8 -1 0 14 -6 11 -11 23 -11 27 0 3 5 3 11 -1 8 -5 8 -1 0 14 -6 11 -8 27
-5 35 3 8 2 17 -3 20 -4 3 -8 -34 -7 -81z"/>
<path d="M453 554 c-8 -21 13 -42 28 -27 13 13 5 43 -11 43 -6 0 -13 -7 -17
-16z"/>
<path d="M14 514 c4 -9 14 -47 23 -83 18 -74 47 -116 63 -91 5 8 12 34 16 58
8 51 19 54 28 8 7 -38 40 -85 51 -74 8 7 54 166 55 186 0 6 -7 12 -15 12 -8 0
-15 -9 -15 -21 0 -33 -22 -109 -30 -104 -4 2 -13 32 -20 65 -11 54 -15 60 -37
60 -19 0 -24 -4 -19 -15 7 -19 -13 -119 -22 -110 -4 4 -14 32 -22 63 -12 47
-19 58 -39 60 -19 3 -23 0 -17 -14z"/>
<path d="M1096 517 c-11 -8 -18 -26 -18 -42 0 -28 5 -34 64 -76 20 -14 21 -18
9 -33 -14 -17 -25 -17 -65 -1 -16 7 -17 6 -7 -13 9 -17 21 -22 50 -22 77 0 96
74 31 118 -42 28 -45 46 -7 50 15 2 27 9 27 18 0 18 -59 19 -84 1z"/>
<path d="M2101 512 c-8 -16 -6 -17 25 -14 l34 4 -40 -83 -39 -84 61 -3 c68 -3
88 1 88 20 0 10 -12 12 -40 10 -22 -2 -40 -2 -40 1 0 2 16 38 35 80 19 42 35
78 35 81 0 3 -25 6 -55 6 -42 0 -56 -4 -64 -18z"/>
<path d="M573 500 c-38 -15 -31 -65 12 -92 44 -29 42 -54 -3 -51 -45 2 -36
-21 10 -25 71 -6 92 64 31 103 -46 28 -43 52 6 46 7 -2 11 4 9 11 -6 16 -36
20 -65 8z"/>
<path d="M1573 500 c-36 -15 -56 -55 -50 -98 18 -106 167 -92 167 16 0 23 -7
49 -17 61 -21 24 -68 35 -100 21z m67 -41 c23 -41 4 -109 -29 -109 -25 0 -41
21 -48 63 -10 61 50 97 77 46z"/>
<path d="M270 495 c0 -3 9 -24 21 -47 14 -27 20 -54 17 -79 -3 -36 -2 -39 22
-39 24 0 25 3 22 39 -3 25 3 52 17 79 25 49 25 52 7 52 -8 0 -17 -11 -20 -25
-4 -14 -10 -25 -15 -25 -5 0 -12 11 -15 25 -5 18 -13 25 -31 25 -14 0 -25 -2
-25 -5z"/>
<path d="M417 493 c-14 -14 -6 -19 24 -15 l31 4 -36 -71 c-20 -39 -36 -73 -36
-76 0 -12 123 0 127 12 3 8 -6 10 -31 6 -44 -7 -45 0 -6 77 17 33 30 62 30 65
0 7 -95 6 -103 -2z"/>
<path d="M687 493 c-14 -14 -6 -19 24 -15 l31 4 -36 -71 c-20 -39 -36 -73 -36
-76 0 -12 123 0 127 12 3 8 -6 10 -31 6 -44 -7 -45 0 -6 77 17 33 30 62 30 65
0 7 -95 6 -103 -2z"/>
<path d="M851 428 c-13 -40 -26 -79 -28 -85 -3 -7 2 -13 10 -13 8 0 18 11 21
25 5 20 13 25 36 25 25 0 30 -4 30 -25 0 -21 5 -25 30 -25 30 0 30 0 16 28 -8
15 -22 53 -31 85 -14 47 -20 57 -39 57 -19 0 -26 -11 -45 -72z m49 -5 c0 -7
-7 -13 -16 -13 -11 0 -14 5 -10 16 3 9 6 21 6 27 0 16 20 -14 20 -30z"/>
<path d="M1230 491 c0 -5 11 -11 25 -13 l25 -3 -34 -72 -35 -73 64 0 c52 0 65
3 65 15 0 11 -7 14 -24 9 -43 -10 -46 3 -15 71 16 35 29 67 29 70 0 3 -22 5
-50 5 -27 0 -50 -4 -50 -9z"/>
<path d="M1368 415 l-3 -85 25 0 c24 0 26 3 22 35 -2 19 -2 35 1 35 3 0 14
-16 26 -35 15 -25 27 -35 46 -35 l25 0 -31 51 -32 51 22 28 c26 36 26 40 1 40
-11 0 -20 -6 -20 -14 0 -8 -9 -24 -20 -37 l-19 -24 -1 38 c0 30 -4 37 -19 37
-18 0 -20 -9 -23 -85z"/>
<path d="M1715 415 l0 -85 48 0 c33 0 47 4 47 14 0 9 -8 12 -25 8 -22 -4 -25
-1 -25 26 0 17 5 34 10 37 6 3 10 11 10 16 0 6 -4 7 -10 4 -6 -4 -10 8 -10 29
0 31 -3 36 -22 36 -22 0 -23 -4 -23 -85z"/>
<path d="M1861 428 c-13 -40 -26 -79 -28 -85 -3 -8 3 -13 17 -13 11 0 19 4 16
9 -12 19 7 41 35 41 24 0 29 -4 29 -25 0 -21 5 -25 29 -25 l30 0 -16 38 c-8
20 -22 58 -30 85 -11 38 -18 47 -36 47 -20 0 -27 -11 -46 -72z m49 -5 c0 -7
-7 -13 -16 -13 -11 0 -14 5 -10 16 3 9 6 21 6 27 0 16 20 -14 20 -30z"/>
<path d="M2281 428 c-13 -40 -26 -79 -28 -85 -3 -7 2 -13 10 -13 9 0 17 10 19
23 2 17 11 23 36 25 29 3 32 1 32 -22 0 -22 4 -26 31 -26 24 0 29 3 21 13 -5
6 -20 45 -33 85 -19 59 -27 72 -44 72 -17 0 -25 -13 -44 -72z m49 -5 c0 -7 -7
-13 -16 -13 -11 0 -14 5 -10 16 3 9 6 21 6 27 0 16 20 -14 20 -30z"/>
<path d="M2428 415 l-3 -85 25 0 c24 0 26 3 23 38 l-4 37 21 -37 c15 -29 27
-38 46 -38 l26 0 -26 44 c-22 38 -24 45 -11 56 38 31 9 70 -51 70 l-43 0 -3
-85z m67 35 c0 -13 -6 -25 -12 -27 -9 -3 -13 6 -13 27 0 21 4 30 13 28 6 -3
12 -15 12 -28z"/>
<path d="M2580 490 c0 -5 12 -10 26 -10 29 0 28 -12 -12 -92 -13 -26 -24 -50
-24 -53 0 -12 123 0 127 12 3 8 -6 10 -31 6 -44 -7 -45 0 -6 77 17 33 30 62
30 65 0 3 -25 5 -55 5 -30 0 -55 -4 -55 -10z"/>
<path d="M2750 433 c-11 -38 -23 -76 -26 -85 -3 -12 0 -18 10 -18 8 0 16 10
18 23 2 17 10 22 33 22 23 0 31 -5 33 -22 2 -13 10 -23 17 -23 7 0 15 -10 17
-22 2 -12 9 -23 16 -24 7 -1 8 0 2 3 -14 6 -13 43 1 43 8 0 8 4 1 13 -5 6 -20
45 -33 85 -20 61 -26 72 -46 72 -19 0 -25 -10 -43 -67z m49 -15 c1 -5 -6 -8
-14 -8 -16 0 -19 9 -8 36 6 16 7 16 14 -2 4 -10 8 -22 8 -26z"/>
<path d="M2898 414 l-3 -86 53 4 c63 6 82 21 89 74 4 30 0 45 -17 67 -18 23
-29 27 -70 27 l-49 0 -3 -86z m80 58 c23 -15 26 -75 5 -101 -29 -35 -43 -19
-43 50 0 59 8 70 38 51z"/>
<path d="M3067 493 c-14 -14 -6 -19 24 -15 l31 5 -20 -39 c-11 -22 -27 -56
-35 -76 l-16 -38 65 0 c49 0 64 3 64 14 0 11 -9 13 -35 9 -43 -7 -44 0 -5 77
17 33 30 62 30 65 0 7 -95 6 -103 -2z"/>
<path d="M3250 493 c0 -5 -11 -43 -24 -85 -24 -76 -24 -78 -5 -78 11 0 18 4
15 9 -12 19 7 41 35 41 24 0 29 -4 29 -25 0 -21 5 -25 28 -25 l29 0 -30 85
c-26 74 -32 85 -53 85 -13 0 -24 -3 -24 -7z m30 -70 c0 -7 -7 -13 -16 -13 -11
0 -14 5 -10 16 3 9 6 21 6 27 0 16 20 -14 20 -30z"/>
<path d="M3380 415 c0 -68 3 -85 14 -85 11 0 16 14 18 50 l3 50 35 -47 c19
-26 43 -49 53 -51 15 -3 17 6 17 82 0 69 -3 86 -15 86 -12 0 -13 -9 -8 -45 3
-27 2 -45 -4 -45 -5 0 -24 20 -42 45 -19 27 -40 45 -52 45 -17 0 -19 -8 -19
-85z"/>
<path d="M3550 415 c0 -81 1 -85 23 -85 21 0 22 3 19 85 -3 76 -5 85 -23 85
-17 0 -19 -8 -19 -85z"/>
<path d="M3662 493 c4 -11 -33 -135 -45 -150 -7 -10 -4 -13 11 -13 15 0 22 7
24 28 2 22 7 26 28 23 28 -3 42 -19 35 -38 -3 -9 6 -13 25 -13 17 0 30 1 30 3
0 1 -13 38 -28 82 -25 71 -31 80 -55 83 -15 2 -26 0 -25 -5z m37 -75 c1 -5 -6
-8 -14 -8 -15 0 -21 31 -8 44 7 6 20 -17 22 -36z"/>
<path d="M1660 209 l-25 -20 25 6 c30 9 45 21 33 28 -5 3 -20 -3 -33 -14z"/>
<path d="M405 100 l0 -90 51 0 c27 0 55 5 62 12 17 17 15 58 -5 80 -9 11 -11
18 -5 18 13 0 16 29 6 54 -5 12 -20 16 -58 16 l-51 0 0 -90z m70 45 c0 -10 -6
-20 -12 -22 -8 -3 -13 5 -13 22 0 17 5 25 13 23 6 -3 12 -13 12 -23z m10 -80
c0 -20 -6 -31 -17 -33 -15 -3 -18 4 -18 33 0 29 3 36 18 33 11 -2 17 -13 17
-33z"/>
<path d="M2335 100 c0 -86 1 -90 22 -90 18 0 22 7 25 38 l3 37 22 -37 c17 -29
29 -38 48 -38 l26 0 -30 53 -31 54 25 33 c30 40 30 40 8 40 -10 0 -29 -18 -43
-43 l-25 -42 -3 43 c-3 36 -6 42 -25 42 -21 0 -22 -4 -22 -90z"/>
<path d="M258 90 c3 -71 6 -80 23 -80 17 0 19 8 19 80 0 76 -1 80 -22 80 -22
0 -23 -3 -20 -80z"/>
<path d="M593 148 c-2 -13 -11 -49 -22 -81 -16 -44 -17 -57 -7 -57 8 0 17 11
20 25 5 18 13 25 30 25 17 0 26 -7 30 -25 5 -18 13 -25 30 -25 l23 0 -27 77
c-23 66 -31 78 -52 81 -18 2 -24 -2 -25 -20z m36 -60 c1 -5 -6 -8 -14 -8 -16
0 -19 9 -8 36 6 16 7 16 14 -2 4 -10 8 -22 8 -26z"/>
<path d="M725 90 c0 -60 3 -80 13 -80 10 0 13 13 10 50 -1 28 -2 50 -1 50 1 0
16 -20 33 -45 17 -25 39 -49 50 -55 17 -9 19 -5 22 75 2 70 0 85 -12 85 -12 0
-14 -11 -12 -52 l3 -53 -36 53 c-20 30 -43 52 -53 52 -16 0 -18 -10 -17 -80z"/>
<path d="M880 90 c0 -77 1 -80 23 -80 20 0 23 4 19 35 -5 44 3 44 24 0 12 -26
23 -35 41 -35 l25 0 -27 47 -26 47 21 28 c25 34 25 38 -1 38 -11 0 -18 -4 -15
-8 3 -5 -6 -21 -20 -38 l-25 -29 3 38 c4 33 2 37 -19 37 -22 0 -23 -3 -23 -80z"/>
<path d="M1050 150 c-22 -22 -27 -78 -10 -110 12 -23 59 -39 94 -33 35 7 56
39 56 85 0 51 -28 78 -80 78 -27 0 -47 -7 -60 -20z m90 -19 c23 -43 9 -101
-24 -101 -32 0 -46 19 -46 60 0 56 47 84 70 41z"/>
<path d="M1214 154 c4 -9 11 -37 18 -63 22 -91 51 -110 63 -41 9 52 21 59 29
16 7 -37 32 -65 45 -50 8 9 41 125 41 144 0 5 -4 10 -8 10 -5 0 -14 -25 -21
-56 -7 -30 -15 -53 -18 -51 -2 3 -10 27 -17 54 -9 35 -18 49 -32 51 -16 2 -19
-4 -21 -44 -3 -69 -18 -73 -32 -9 -10 45 -16 55 -33 55 -14 0 -18 -5 -14 -16z"/>
<path d="M1450 148 c-23 -25 -27 -84 -6 -110 30 -40 104 -43 131 -5 22 31 19
93 -5 117 -28 28 -93 27 -120 -2z m90 -17 c23 -44 9 -101 -26 -101 -27 0 -44
26 -44 67 0 50 48 73 70 34z"/>
<path d="M1623 163 c-7 -2 -13 -17 -13 -33 0 -20 10 -35 35 -54 40 -31 37 -50
-6 -44 -37 6 -39 -17 -3 -26 67 -17 104 68 44 99 -37 19 -40 45 -5 45 14 0 25
5 25 10 0 10 -55 13 -77 3z"/>
<path d="M1750 150 c-22 -22 -27 -78 -10 -110 20 -37 111 -48 124 -15 4 10 -3
12 -30 8 -44 -7 -64 10 -64 56 0 44 14 61 52 61 15 0 28 5 28 10 0 19 -79 11
-100 -10z"/>
<path d="M1885 90 c0 -73 2 -80 20 -80 18 0 20 7 20 80 0 73 -2 80 -20 80 -18
0 -20 -7 -20 -80z"/>
<path d="M2034 154 c4 -9 11 -37 18 -63 22 -91 51 -110 63 -41 9 51 21 59 29
18 6 -33 23 -58 37 -58 5 0 15 24 23 52 25 89 29 108 19 108 -6 0 -15 -25 -22
-56 -7 -30 -15 -53 -18 -51 -2 3 -10 27 -17 54 -9 37 -17 49 -34 51 -16 2 -20
-1 -16 -11 3 -8 0 -35 -7 -58 l-12 -44 -15 58 c-11 45 -18 57 -34 57 -15 0
-18 -5 -14 -16z"/>
<path d="M2500 90 c0 -77 1 -80 23 -80 20 0 23 4 19 30 -5 38 3 38 23 0 9 -18
23 -30 35 -30 25 0 25 5 0 45 -18 29 -18 34 -5 45 18 15 19 42 3 58 -7 7 -31
12 -55 12 l-43 0 0 -80z m65 30 c0 -13 -6 -25 -12 -27 -9 -3 -13 6 -13 27 0
21 4 30 13 28 6 -3 12 -15 12 -28z"/>
<path d="M2668 90 c-19 -59 -23 -80 -13 -80 7 0 16 11 19 25 9 35 53 35 62 0
4 -17 13 -25 29 -25 l22 0 -27 78 c-39 109 -57 109 -92 2z m51 -2 c1 -5 -6 -8
-14 -8 -16 0 -19 9 -8 36 6 16 7 16 14 -2 4 -10 8 -22 8 -26z"/>
<path d="M2810 90 c0 -77 1 -80 23 -80 20 0 23 4 19 30 -6 39 12 39 28 0 9
-22 19 -30 37 -30 l25 0 -27 47 -26 47 21 28 c25 34 25 38 0 38 -11 0 -20 -6
-20 -14 0 -8 -9 -24 -21 -37 l-20 -24 3 38 c4 33 2 37 -19 37 -22 0 -23 -3
-23 -80z"/>
<path d="M2980 150 c-22 -22 -27 -78 -10 -110 14 -27 64 -41 100 -28 37 12 50
35 50 82 0 49 -28 76 -80 76 -27 0 -47 -7 -60 -20z m90 -19 c23 -43 9 -101
-24 -101 -32 0 -46 19 -46 60 0 56 47 84 70 41z"/>
<path d="M3146 143 c33 -131 66 -171 79 -94 9 52 21 60 29 19 6 -33 23 -58 37
-58 8 0 27 57 45 132 12 54 -12 27 -27 -29 l-16 -58 -17 58 c-12 41 -21 57
-34 57 -13 0 -17 -10 -19 -47 -3 -68 -18 -72 -32 -8 -10 44 -16 55 -32 55 -16
0 -18 -5 -13 -27z"/>
<path d="M3365 90 c0 -73 2 -80 20 -80 18 0 20 7 20 80 0 73 -2 80 -20 80 -18
0 -20 -7 -20 -80z"/>
<path d="M3430 89 l0 -80 47 3 c25 2 48 8 50 14 2 7 -8 9 -27 6 -27 -4 -30 -2
-30 22 0 16 5 26 15 26 8 0 15 7 15 15 0 8 -6 14 -12 12 -7 -1 -14 8 -16 21
-3 17 1 22 17 22 12 0 21 5 21 10 0 6 -18 10 -40 10 l-40 0 0 -81z"/>
</g>
</svg>
