<?xml version="1.0" encoding="UTF-8"?>
<!-- Generator: Adobe Illustrator 26.3.1, SVG Export Plug-In . SVG Version: 6.00 Build 0)  -->
<svg xmlns="http://www.w3.org/2000/svg" xmlns:xlink="http://www.w3.org/1999/xlink" version="1.1" id="Warstwa_1" x="0px" y="0px" viewBox="0 0 1402.3 355.3" style="enable-background:new 0 0 1402.3 355.3;" xml:space="preserve">
<style type="text/css">
	.st0{fill:url(#SVGID_1_);}
	.st1{fill:#FEC703;}
	.st2{fill:url(#SVGID_00000078744300856354018040000016909524405616648084_);}
	.st3{fill:url(#SVGID_00000031193814198957670290000004771455891242745789_);}
	.st4{fill:url(#SVGID_00000145048491565080473300000002418449345906327178_);}
	.st5{fill:url(#SVGID_00000162353695078001477590000002959462162310449281_);}
	.st6{fill:url(#SVGID_00000051369665697467902660000014521499081788670624_);}
	.st7{fill:url(#SVGID_00000088096103648901664070000016774702935396893336_);}
	.st8{fill:#58008B;}
</style>
<g>
	<g>
		<linearGradient id="SVGID_1_" gradientUnits="userSpaceOnUse" x1="226.3068" y1="53.9207" x2="80.3721" y2="306.6869">
			<stop offset="0" style="stop-color:#58008B"></stop>
			<stop offset="0" style="stop-color:#522583"></stop>
			<stop offset="1" style="stop-color:#7D1BC8"></stop>
		</linearGradient>
		<path class="st0" d="M196.1,253.9c0-3.7,0.4-7.4,1.1-10.9c-10.2,6.2-22.1,9.8-34.9,9.8c-14.1,0-27.1-4.3-37.9-11.7l-26.6,6.6    l8.3-25.3c-6.9-10.5-10.9-23.1-11-36.7c0-37.1,30-67.1,67-67.2c22.9,0,43.1,11.4,55.3,29l67.1-42.1    C258,66.6,217.3,40.7,164.2,40.8C84.1,40.9,12.3,97.5,12.4,184.7c0.1,87.2,72.1,145.4,152.2,145.4c28.9,0,54.1-7.8,75.4-21.1    C214.8,303.3,196,280.8,196.1,253.9z"></path>
		<g>
			<path class="st1" d="M272.5,177.6c34.2,0,62,27.8,61.9,62.1c0,12.5-3.7,24.2-10.1,33.9L332,297l-24.6-6.1     c-10,6.8-22,10.8-35,10.8c-34.2,0-62-27.8-61.9-62.1S238.2,177.6,272.5,177.6z"></path>
		</g>
	</g>
	<g>
		<g>
			<g>
				
					<linearGradient id="SVGID_00000090986714339432870600000008379719013744708795_" gradientUnits="userSpaceOnUse" x1="526.5527" y1="87.4103" x2="443.7957" y2="230.7497">
					<stop offset="0" style="stop-color:#58008B"></stop>
					<stop offset="0" style="stop-color:#522583"></stop>
					<stop offset="1" style="stop-color:#7D1BC8"></stop>
				</linearGradient>
				<path style="fill:url(#SVGID_00000090986714339432870600000008379719013744708795_);" d="M518.4,181.6      c-6.7,10.8-18.7,18-32.3,18c-8,0-15.4-2.4-21.5-6.6l-15.1,3.8l4.7-14.4c-3.9-6-6.2-13.1-6.2-20.8c0-18,12.5-33.1,29.3-37.1      c3.2-0.8,6.6-1.3,10.3-1.3c10.7,0,23.4,5.7,29.4,15l38.4-24.1c-15.1-22-38.1-36.7-68.2-36.7c-45.4,0.1-86.2,32.2-86.1,81.6      c0.1,49.5,40.9,82.5,86.3,82.4c30.1,0,53.1-14.8,68.1-36.8L518.4,181.6z"></path>
				
					<linearGradient id="SVGID_00000123438747432180578590000017808643364933514373_" gradientUnits="userSpaceOnUse" x1="701.6266" y1="71.2346" x2="598.7019" y2="249.5055">
					<stop offset="0" style="stop-color:#58008B"></stop>
					<stop offset="0" style="stop-color:#522583"></stop>
					<stop offset="1" style="stop-color:#7D1BC8"></stop>
				</linearGradient>
				<path style="fill:url(#SVGID_00000123438747432180578590000017808643364933514373_);" d="M719.1,81.3l0,36.8l-70.1,73.6      l70.2-0.1l0.1,45.8L578,237.5l0-36.4l69.1-73.9l-64.8,0.1l-0.1-45.8L719.1,81.3z"></path>
				
					<linearGradient id="SVGID_00000005234117868555601880000003500645783982872202_" gradientUnits="userSpaceOnUse" x1="898.275" y1="69.568" x2="799.0183" y2="241.4857">
					<stop offset="0" style="stop-color:#58008B"></stop>
					<stop offset="0" style="stop-color:#522583"></stop>
					<stop offset="1" style="stop-color:#7D1BC8"></stop>
				</linearGradient>
				<path style="fill:url(#SVGID_00000005234117868555601880000003500645783982872202_);" d="M868.8,81.2l49.5-0.1l0.2,156      l-49.5,0.1l0-19.7c-10.7,14.7-29.7,23.8-49.4,23.8c-43.8,0.1-74.5-33-74.6-81.8c-0.1-49.1,30.6-82.2,75.1-82.3      c19,0,38.1,8.3,48.8,22.7L868.8,81.2z M867.2,159.3c0-20.4-16.1-36.4-36.1-36.4c-21,0-35.7,16.4-35.7,36.5      c0,19,14.7,36.1,36.1,36C851.6,195.4,867.2,178.4,867.2,159.3z"></path>
				
					<linearGradient id="SVGID_00000116931573683468751150000000253612291311352760_" gradientUnits="userSpaceOnUse" x1="1052.5306" y1="41.0132" x2="948.4774" y2="221.2387">
					<stop offset="0" style="stop-color:#58008B"></stop>
					<stop offset="0" style="stop-color:#522583"></stop>
					<stop offset="1" style="stop-color:#7D1BC8"></stop>
				</linearGradient>
				<path style="fill:url(#SVGID_00000116931573683468751150000000253612291311352760_);" d="M1057.9,80.9l0,37.4l-32.7,0l0.1,118.6      l-49.5,0.1l-0.1-118.6l-28.4,0l0-37.4l28.4,0l-0.1-55.8l49.5-0.1l0.1,55.8L1057.9,80.9z"></path>
				
					<linearGradient id="SVGID_00000153674475858195590640000001269638001016599984_" gradientUnits="userSpaceOnUse" x1="1199.2897" y1="87.5116" x2="1115.9088" y2="231.9316">
					<stop offset="0" style="stop-color:#58008B"></stop>
					<stop offset="0" style="stop-color:#522583"></stop>
					<stop offset="1" style="stop-color:#7D1BC8"></stop>
				</linearGradient>
				<path style="fill:url(#SVGID_00000153674475858195590640000001269638001016599984_);" d="M1238.1,173.3l-114.3,0.1      c4.7,15,17.7,24.4,36.4,24.3c14.7,0,29.7-6.7,39.4-16.1l25.4,32c-15.4,16.7-42.1,27.1-68.1,27.1c-49.5,0.1-84.2-34-84.3-81.4      c-0.1-50.8,39-82.6,83.8-82.6c44.8-0.1,82.2,31.3,82.3,78.8C1238.8,159.9,1238.4,165.6,1238.1,173.3z M1189.6,144.3      c-0.7-15.4-14.4-25.7-32.1-25.7c-14.7,0-29.1,7-34.1,25.8L1189.6,144.3z"></path>
				
					<linearGradient id="SVGID_00000004526380811740076700000002645993027418797749_" gradientUnits="userSpaceOnUse" x1="1351.9767" y1="59.8322" x2="1254.9489" y2="227.8893">
					<stop offset="0" style="stop-color:#58008B"></stop>
					<stop offset="0" style="stop-color:#522583"></stop>
					<stop offset="1" style="stop-color:#7D1BC8"></stop>
				</linearGradient>
				<path style="fill:url(#SVGID_00000004526380811740076700000002645993027418797749_);" d="M1389,81.2l-11.6,47.1      c-9.7-5.7-17.4-6-22.4-6c-19.4,0-35.4,16.4-35.3,62.5l0.1,51.8l-49.5,0.1l-0.2-156l48.8-0.1l0,33.1c9-25.7,27.7-37.1,46.7-37.1      C1373,76.6,1381,77.2,1389,81.2z"></path>
			</g>
		</g>
		<g>
			<path class="st8" d="M401.4,300.3c0-11.8,8.9-19.6,19.5-19.6c10.6,0,19.6,7.8,19.6,19.6s-9,19.7-19.6,19.7     C410.2,320,401.4,312.1,401.4,300.3z M435.4,300.3c0-8.8-6.6-14.7-14.5-14.7c-7.9,0-14.4,5.9-14.4,14.7s6.5,14.8,14.4,14.8     C428.7,315.1,435.4,309.1,435.4,300.3z"></path>
			<path class="st8" d="M496.9,297.3V319h-5.1v-21.5c0-7.2-4.6-11.8-10.6-11.8s-12.3,3.5-12.5,12.6V319h-5.1v-37.4h5.1v6.7     c2.2-5.4,8.3-7.7,13-7.7C490.8,280.7,496.9,287,496.9,297.3z"></path>
			<path class="st8" d="M522.2,319v-57.7h5.1V319H522.2z"></path>
			<path class="st8" d="M551.8,267.9c0-2.2,1.8-3.7,3.9-3.7c2.2,0,4,1.5,4,3.7c0,2.1-1.8,3.6-4,3.6     C553.6,271.5,551.8,270,551.8,267.9z M553.2,319v-37.4h5.1V319H553.2z"></path>
			<path class="st8" d="M617.4,297.3V319h-5.1v-21.5c0-7.2-4.6-11.8-10.6-11.8s-12.3,3.5-12.5,12.6V319h-5.1v-37.4h5.1v6.7     c2.2-5.4,8.3-7.7,13-7.7C611.2,280.7,617.4,287,617.4,297.3z"></path>
			<path class="st8" d="M677.5,302.5h-32.2c0.9,8,6.5,12.6,14,12.6c5.1,0,9.7-2.5,12.2-6.6l4.4,1.9c-3.3,6-9.7,9.5-16.7,9.5     c-10.6,0-19-7.9-19-19.8s8.4-19.5,19-19.5c10.6,0,18.5,7.7,18.5,19.5C677.6,301,677.5,301.8,677.5,302.5z M672.5,298.1     c-0.7-7.8-6.1-12.5-13.4-12.5c-7.4,0-12.7,4.5-13.8,12.5H672.5z"></path>
			<path class="st8" d="M773.6,300.3c0,11.4-8.5,19.7-19,19.7c-6.2,0-12.2-3.2-14.9-8.3v7.4h-5.1v-57.7h5.1V289     c2.8-5.1,8.6-8.2,14.9-8.2C765.1,280.7,773.6,289,773.6,300.3z M768.6,300.2c0-8.2-6.4-14.6-14.3-14.6c-7.4,0-14.5,5.8-14.5,14.9     c0,8.6,6.7,14.6,14.5,14.6C762.2,315.1,768.6,308.5,768.6,300.2z"></path>
			<path class="st8" d="M824.5,281.7h5.1V319h-5.1v-6.6c-2.2,5.3-8.3,7.5-13,7.5c-9,0-15.2-6.2-15.1-16.6v-21.8h5.1v21.7     c0,7.2,4.5,11.8,10.6,11.8c5.9,0,12.3-3.5,12.4-12.6V281.7z"></path>
			<path class="st8" d="M852.4,309.1h4.7c0.6,3.1,3.4,6.3,8.9,6.3c5.4,0,8.6-2.8,8.6-6.6c0-3-2.1-5-5.9-6l-5.4-1.3     c-5.3-1.3-9.5-4-9.5-10.2c0-6.1,5.2-10.6,12.3-10.6c6.2,0,12,3.4,12.2,10.2h-5c-0.2-3.4-3.5-5.6-7.2-5.6c-4.3,0-7.3,2.6-7.3,6.2     s3,5,5.8,5.7l5.5,1.4c7.3,1.8,9.5,6.2,9.5,10.5c0,6.6-6,11-13.8,11C859.5,320,853,316.2,852.4,309.1z"></path>
			<path class="st8" d="M901.4,267.9c0-2.2,1.8-3.7,3.9-3.7c2.2,0,4,1.5,4,3.7c0,2.1-1.8,3.6-4,3.6     C903.2,271.5,901.4,270,901.4,267.9z M902.8,319v-37.4h5.1V319H902.8z"></path>
			<path class="st8" d="M967,297.3V319h-5.1v-21.5c0-7.2-4.6-11.8-10.6-11.8s-12.3,3.5-12.5,12.6V319h-5.1v-37.4h5.1v6.7     c2.2-5.4,8.3-7.7,13-7.7C960.8,280.7,967,287,967,297.3z"></path>
			<path class="st8" d="M1027,302.5h-32.2c0.9,8,6.5,12.6,14,12.6c5.1,0,9.7-2.5,12.2-6.6l4.4,1.9c-3.3,6-9.7,9.5-16.7,9.5     c-10.6,0-19-7.9-19-19.8s8.4-19.5,19-19.5c10.6,0,18.5,7.7,18.5,19.5C1027.2,301,1027.1,301.8,1027,302.5z M1022.1,298.1     c-0.7-7.8-6.1-12.5-13.4-12.5c-7.4,0-12.7,4.5-13.8,12.5H1022.1z"></path>
			<path class="st8" d="M1047.2,309.1h4.7c0.6,3.1,3.4,6.3,8.9,6.3c5.4,0,8.6-2.8,8.6-6.6c0-3-2.1-5-5.9-6l-5.4-1.3     c-5.3-1.3-9.5-4-9.5-10.2c0-6.1,5.2-10.6,12.3-10.6c6.2,0,12,3.4,12.2,10.2h-5c-0.2-3.4-3.5-5.6-7.2-5.6c-4.3,0-7.3,2.6-7.3,6.2     s3,5,5.8,5.7l5.5,1.4c7.3,1.8,9.5,6.2,9.5,10.5c0,6.6-6,11-13.8,11C1054.3,320,1047.8,316.2,1047.2,309.1z"></path>
			<path class="st8" d="M1094.5,309.1h4.7c0.6,3.1,3.4,6.3,8.9,6.3c5.4,0,8.6-2.8,8.6-6.6c0-3-2.1-5-5.9-6l-5.4-1.3     c-5.3-1.3-9.5-4-9.5-10.2c0-6.1,5.2-10.6,12.3-10.6c6.2,0,12,3.4,12.2,10.2h-5c-0.2-3.4-3.5-5.6-7.2-5.6c-4.3,0-7.3,2.6-7.3,6.2     s3,5,5.8,5.7l5.5,1.4c7.3,1.8,9.5,6.2,9.5,10.5c0,6.6-6,11-13.8,11C1101.7,320,1095.2,316.2,1094.5,309.1z"></path>
			<path class="st8" d="M1195.1,281.7v4.4h-8.6v33h-5v-33h-6.8v-4.4h6.8v-14h5v14H1195.1z"></path>
			<path class="st8" d="M1212.6,300.3c0-11.8,8.9-19.6,19.5-19.6s19.6,7.8,19.6,19.6s-9,19.7-19.6,19.7S1212.6,312.1,1212.6,300.3z      M1246.6,300.3c0-8.8-6.6-14.7-14.5-14.7c-7.9,0-14.4,5.9-14.4,14.7s6.5,14.8,14.4,14.8C1239.9,315.1,1246.6,309.1,1246.6,300.3z     "></path>
			<path class="st8" d="M1272.3,300.3c0-11.8,8.9-19.6,19.5-19.6s19.6,7.8,19.6,19.6s-9,19.7-19.6,19.7S1272.3,312.1,1272.3,300.3z      M1306.3,300.3c0-8.8-6.6-14.7-14.5-14.7c-7.9,0-14.4,5.9-14.4,14.7s6.5,14.8,14.4,14.8C1299.7,315.1,1306.3,309.1,1306.3,300.3z     "></path>
			<path class="st8" d="M1334.6,319v-57.7h5.1V319H1334.6z"></path>
			<path class="st8" d="M1362.6,309.1h4.7c0.6,3.1,3.4,6.3,8.9,6.3c5.4,0,8.6-2.8,8.6-6.6c0-3-2.1-5-5.9-6l-5.4-1.3     c-5.3-1.3-9.5-4-9.5-10.2c0-6.1,5.2-10.6,12.3-10.6c6.2,0,12,3.4,12.2,10.2h-5c-0.2-3.4-3.5-5.6-7.2-5.6c-4.3,0-7.3,2.6-7.3,6.2     s3,5,5.8,5.7l5.5,1.4c7.3,1.8,9.5,6.2,9.5,10.5c0,6.6-6,11-13.8,11C1369.7,320,1363.2,316.2,1362.6,309.1z"></path>
		</g>
	</g>
</g>
</svg>
