<svg width="60" height="60" viewBox="0 0 60 60" version="1.1" xmlns="http://www.w3.org/2000/svg" xmlns:xlink="http://www.w3.org/1999/xlink">
    <title>website</title>
    <g stroke="none" stroke-width="1" fill="none" fill-rule="evenodd">
        <g transform="translate(-1610.000000, -403.000000)" fill="none">
            <g transform="translate(1610.000000, 403.000000)" fill="none">
                <rect x="0" y="0" width="60" height="60" fill="none"></rect>
                <path d="M54.6496875,2 C57.5998828,2 60,4.40246094 60,7.35546875 L60,7.35546875 L60,42.9734375 C60,45.9264453 57.5998828,48.3289063 54.6496875,48.3289063 L54.6496875,48.3289063 L40.6396875,48.3289063 L42.45,53.5625 L44.2241016,53.5625 C45.1948828,53.5625 45.9819141,54.3495313 45.9819141,55.3203125 C45.9819141,56.2910938 45.1948828,57.078125 44.2241016,57.078125 L44.2241016,57.078125 L15.7758984,57.078125 C14.8051172,57.078125 14.0180859,56.2910938 14.0180859,55.3203125 C14.0180859,54.3495313 14.8051172,53.5625 15.7758984,53.5625 L15.7758984,53.5625 L17.55,53.5625 L19.3603125,48.3289063 L5.3503125,48.3289063 C2.40011719,48.3289063 0,45.9264453 0,42.9734375 L0,42.9734375 L0,7.35546875 C0,4.40246094 2.40011719,2 5.3503125,2 L5.3503125,2 Z M36.9196875,48.3289063 L23.0803125,48.3289063 L21.2701172,53.5625 L38.7298828,53.5625 L36.9196875,48.3289063 Z M56.484375,16.0367188 L3.515625,16.0367188 L3.515625,42.9734375 C3.515625,43.9879297 4.33863281,44.8132812 5.3503125,44.8132812 L5.3503125,44.8132812 L54.6496875,44.8132812 C55.6613672,44.8132812 56.484375,43.9879297 56.484375,42.9734375 L56.484375,42.9734375 L56.484375,16.0367188 Z M13.1676563,19.1566016 C14.1384375,19.1566016 14.9254687,19.9436328 14.9254687,20.9144141 C14.9254687,21.8851953 14.1384375,22.6722266 13.1676563,22.6722266 L13.1676563,22.6722266 L10.4644922,22.6722266 L10.4644922,27.6672266 L13.1676563,27.6672266 C14.1384375,27.6672266 14.9254687,28.4542578 14.9254687,29.4250391 C14.9254687,30.3958203 14.1384375,31.1828516 13.1676563,31.1828516 L13.1676563,31.1828516 L10.4644922,31.1828516 L10.4644922,37.7630469 L15.8552344,37.7630469 L15.8552344,35.0598828 C15.8552344,34.0891016 16.6422656,33.3020703 17.6130469,33.3020703 C18.5838281,33.3020703 19.3708594,34.0891016 19.3708594,35.0598828 L19.3708594,35.0598828 L19.3708594,37.7630469 L24.7617187,37.7630469 L24.7617187,35.0598828 C24.7617187,34.0891016 25.54875,33.3020703 26.5195312,33.3020703 C27.4903125,33.3020703 28.2773437,34.0891016 28.2773437,35.0598828 L28.2773437,35.0598828 L28.2773437,39.5208594 C28.2773437,40.4916406 27.4903125,41.2786719 26.5195312,41.2786719 L26.5195312,41.2786719 L8.70667969,41.2786719 C7.73589844,41.2786719 6.94886719,40.4916406 6.94886719,39.5208594 L6.94886719,39.5208594 L6.94886719,20.9144141 C6.94886719,19.9436328 7.73589844,19.1566016 8.70667969,19.1566016 L8.70667969,19.1566016 Z M51.5646094,30.4214844 C52.5353906,30.4214844 53.3223047,31.2085156 53.3223047,32.1792969 L53.3223047,32.1792969 L53.3223047,39.5208594 C53.3223047,40.4916406 52.5352734,41.2786719 51.5644922,41.2786719 L51.5644922,41.2786719 L33.5588672,41.2786719 C32.5880859,41.2786719 31.8010547,40.4916406 31.8010547,39.5208594 L31.8010547,39.5208594 L31.8010547,32.1792969 C31.8010547,31.2085156 32.5880859,30.4214844 33.5588672,30.4214844 L33.5588672,30.4214844 Z M49.8067969,33.9371094 L35.3166797,33.9371094 L35.3166797,37.7631641 L49.8067969,37.7631641 L49.8067969,33.9371094 Z M42.5616797,24.603125 C43.5324609,24.603125 44.3194922,25.3901563 44.3194922,26.3609375 C44.3194922,27.3317188 43.5324609,28.11875 42.5616797,28.11875 L42.5616797,28.11875 L33.5588672,28.11875 C32.5880859,28.11875 31.8010547,27.3317188 31.8010547,26.3609375 C31.8010547,25.3901563 32.5880859,24.603125 33.5588672,24.603125 L33.5588672,24.603125 Z M51.5646094,19.1566016 C52.5353906,19.1566016 53.3223047,19.9436328 53.3223047,20.9144141 C53.3223047,21.8851953 52.5352734,22.6722266 51.5644922,22.6722266 L51.5644922,22.6722266 L33.5588672,22.6722266 C32.5880859,22.6722266 31.8010547,21.8851953 31.8010547,20.9144141 C31.8010547,19.9436328 32.5880859,19.1566016 33.5588672,19.1566016 L33.5588672,19.1566016 Z M54.6496875,5.515625 L5.3503125,5.515625 C4.33863281,5.515625 3.515625,6.34097656 3.515625,7.35546875 L3.515625,7.35546875 L3.515625,12.5209766 L56.484375,12.5209766 L56.484375,7.35546875 C56.484375,6.34097656 55.6613672,5.515625 54.6496875,5.515625 L54.6496875,5.515625 Z M10.0123828,7.27636719 C10.9831641,7.27636719 11.7701953,8.06339844 11.7701953,9.03417969 C11.7701953,10.0049609 10.9831641,10.7919922 10.0123828,10.7919922 L10.0123828,10.7919922 L7.3884375,10.7919922 C6.41765625,10.7919922 5.630625,10.0049609 5.630625,9.03417969 C5.630625,8.06339844 6.41765625,7.27636719 7.3884375,7.27636719 L7.3884375,7.27636719 Z M17.8533984,7.27636719 C18.8241797,7.27636719 19.6112109,8.06339844 19.6112109,9.03417969 C19.6112109,10.0049609 18.8241797,10.7919922 17.8533984,10.7919922 L17.8533984,10.7919922 L15.2294531,10.7919922 C14.2586719,10.7919922 13.4716406,10.0049609 13.4716406,9.03417969 C13.4716406,8.06339844 14.2586719,7.27636719 15.2294531,7.27636719 L15.2294531,7.27636719 Z M25.6944141,7.27636719 C26.6651953,7.27636719 27.4522266,8.06339844 27.4522266,9.03417969 C27.4522266,10.0049609 26.6651953,10.7919922 25.6944141,10.7919922 L25.6944141,10.7919922 L23.0705859,10.7919922 C22.0998047,10.7919922 21.3127734,10.0049609 21.3127734,9.03417969 C21.3127734,8.06339844 22.0998047,7.27636719 23.0705859,7.27636719 L23.0705859,7.27636719 Z" fill="#00E9BB" fill-rule="nonzero"></path>
            </g>
        </g>
    </g>
</svg>