<?xml version="1.0" standalone="no"?>
<!DOCTYPE svg PUBLIC "-//W3C//DTD SVG 20010904//EN"
 "http://www.w3.org/TR/2001/REC-SVG-20010904/DTD/svg10.dtd">
<svg version="1.0" xmlns="http://www.w3.org/2000/svg"
 width="695.000000pt" height="134.000000pt" viewBox="0 0 695.000000 134.000000"
 preserveAspectRatio="xMidYMid meet">

<g transform="translate(0.000000,134.000000) scale(0.100000,-0.100000)"
fill="#000000" stroke="none">
<path d="M1620 1215 l-75 -55 45 0 c35 0 67 12 145 55 l100 54 -70 1 c-69 0
-71 -1 -145 -55z"/>
<path d="M2558 1104 c-32 -7 -85 -27 -119 -45 -342 -172 -339 -724 4 -888 69
-33 172 -61 225 -61 l34 0 -20 32 c-15 23 -34 36 -74 48 -110 34 -180 105
-230 229 -19 48 -22 75 -23 196 0 122 3 148 23 200 64 168 193 253 369 243
135 -8 245 -74 300 -182 50 -99 67 -271 38 -391 -8 -33 -14 -63 -15 -67 0 -5
33 -8 74 -8 71 0 74 1 85 28 33 83 41 238 17 328 -45 170 -171 291 -352 338
-76 20 -256 20 -336 0z"/>
<path d="M170 621 l0 -481 35 0 35 0 0 363 0 362 47 -50 c26 -27 180 -189 342
-360 258 -270 299 -310 328 -313 l33 -3 0 480 0 481 -35 0 -35 0 0 -353 c0
-195 -2 -356 -6 -359 -3 -3 -76 69 -162 161 -516 547 -515 546 -549 549 l-33
3 0 -480z"/>
<path d="M1340 620 l0 -480 310 0 310 0 0 35 0 35 -240 0 -240 0 0 200 0 199
158 3 157 3 3 33 3 32 -160 0 -161 0 0 175 0 175 240 0 240 0 0 35 0 35 -310
0 -310 0 0 -480z"/>
<path d="M3520 621 l0 -481 35 0 35 0 0 355 c0 195 2 355 5 355 3 0 18 -13 33
-30 15 -16 167 -176 337 -355 282 -296 313 -325 343 -325 l32 0 0 480 0 480
-40 0 -40 0 0 -361 0 -361 -92 97 c-51 54 -203 215 -338 359 -211 224 -250
261 -278 264 l-32 3 0 -480z"/>
<path d="M4974 1078 c-12 -41 -180 -427 -293 -678 -61 -135 -111 -248 -111
-253 0 -4 21 -7 46 -5 l45 3 74 175 73 175 182 0 182 0 76 -178 77 -177 79 0
c59 0 77 3 73 13 -3 6 -61 136 -128 287 -66 151 -156 361 -200 465 l-78 190
-45 3 c-39 3 -45 0 -52 -20z m91 -332 c40 -91 70 -168 67 -171 -9 -9 -294 -6
-290 3 38 98 144 340 147 337 2 -2 36 -78 76 -169z"/>
<path d="M5750 620 l0 -480 65 0 65 0 0 480 0 480 -65 0 -65 0 0 -480z"/>
<path d="M6190 620 l0 -480 310 0 310 0 0 35 0 35 -240 0 -240 0 0 445 0 445
-70 0 -70 0 0 -480z"/>
<path d="M3156 361 c-44 -49 -221 -98 -304 -85 -54 9 -120 -12 -134 -41 -27
-60 22 -105 116 -105 68 0 145 28 216 78 81 56 169 172 132 172 -5 0 -17 -8
-26 -19z"/>
</g>
</svg>
