<?xml version="1.0" encoding="UTF-8"?>
<svg width="802px" height="691px" viewBox="0 0 802 691" version="1.1" xmlns="http://www.w3.org/2000/svg" xmlns:xlink="http://www.w3.org/1999/xlink">
    <title>Shape</title>
    <defs>
        <path d="M1196.51068,284 C1165.31392,283.988219 1140.02358,258.707441 1140,227.510683 C1140.02357,196.310461 1165.31046,171.023565 1196.51068,171 C1227.69768,171.04709 1252.9647,196.323665 1253,227.510683 C1252.96468,258.694228 1227.69423,283.964678 1196.51068,284 L1196.51068,284 Z M1090.98492,227.489725 C1090.98492,258.52168 1104.33702,286.354464 1125.49563,305.805421 L1024.37372,558.113341 L936.369293,336.666753 C930.703147,322.384679 916.904508,312.997503 901.538651,312.971563 L901.453334,312.971563 C886.116582,312.964384 872.317787,322.286812 866.601362,336.517458 L777.658449,557.83608 L689.099462,336.026919 C681.038944,317.342848 659.570428,308.468126 640.668576,316.006409 C621.766725,323.544691 612.298953,344.757172 619.310203,363.859703 L742.678503,672.792943 C748.372687,687.053227 762.174478,696.411463 777.530474,696.424149 L777.551803,696.424149 C792.888555,696.431328 806.68735,687.1089 812.403774,672.878254 L901.304029,451.751583 L989.329785,673.326138 C994.982032,687.615766 1008.80338,697 1024.18176,697 L1024.22441,697 C1039.58146,697 1053.38148,687.67975 1059.11904,673.411449 L1195.24223,333.872811 C1195.98875,333.872811 1196.73527,333.97945 1197.50313,333.97945 C1256.31973,333.97945 1304,286.302376 1304,227.489725 C1304,168.677074 1256.31973,121 1197.50313,121 C1138.68653,121 1091.00625,168.677074 1091.00625,227.489725 L1090.98492,227.489725 Z" id="path-1"></path>
        <filter x="-17.5%" y="-20.8%" width="129.1%" height="134.7%" filterUnits="objectBoundingBox" id="filter-2">
            <feOffset dx="-20" dy="-20" in="SourceAlpha" result="shadowOffsetOuter1"></feOffset>
            <feGaussianBlur stdDeviation="30" in="shadowOffsetOuter1" result="shadowBlurOuter1"></feGaussianBlur>
            <feColorMatrix values="0 0 0 0 0   0 0 0 0 0   0 0 0 0 0  0 0 0 0.05 0" type="matrix" in="shadowBlurOuter1"></feColorMatrix>
        </filter>
    </defs>
    <g id="Website-light" stroke="none" stroke-width="1" fill="none" fill-rule="evenodd">
        <g id="homepage" transform="translate(-540.000000, -73.000000)">
            <g id="Shape" transform="translate(0.000000, 30.000000)">
                <use fill="black" fill-opacity="1" filter="url(#filter-2)" xlink:href="#path-1"></use>
                <use fill="#FFFFFF" fill-rule="evenodd" xlink:href="#path-1"></use>
            </g>
        </g>
    </g>
</svg>